<svg width="55" height="54" viewBox="0 0 55 54" fill="none" xmlns="http://www.w3.org/2000/svg">
<rect x="0.273438" width="54" height="54" rx="27" fill="white" fill-opacity="0.15"/>
<path d="M30.4242 23.3985C29.6578 23.3958 28.8983 23.5444 28.1893 23.8355C27.4804 24.1267 26.8357 24.5549 26.2924 25.0954C25.749 25.636 25.3176 26.2784 25.0228 26.9859C24.728 27.6934 24.5755 28.452 24.5742 29.2185V35.0985C24.5742 35.3372 24.669 35.5661 24.8378 35.7349C25.0066 35.9037 25.2355 35.9985 25.4742 35.9985H27.5742C27.8129 35.9985 28.0418 35.9037 28.2106 35.7349C28.3794 35.5661 28.4742 35.3372 28.4742 35.0985V29.2185C28.474 28.9459 28.5313 28.6763 28.6423 28.4273C28.7532 28.1783 28.9154 27.9555 29.1183 27.7734C29.3211 27.5913 29.5601 27.454 29.8196 27.3705C30.079 27.2869 30.3532 27.259 30.6242 27.2885C31.1102 27.3497 31.5569 27.5871 31.8794 27.9558C32.202 28.3244 32.3781 28.7986 32.3742 29.2885V35.0985C32.3742 35.3372 32.469 35.5661 32.6378 35.7349C32.8066 35.9037 33.0355 35.9985 33.2742 35.9985H35.3742C35.6129 35.9985 35.8418 35.9037 36.0106 35.7349C36.1794 35.5661 36.2742 35.3372 36.2742 35.0985V29.2185C36.2729 28.452 36.1205 27.6934 35.8257 26.9859C35.5308 26.2784 35.0994 25.636 34.556 25.0954C34.0127 24.5549 33.3681 24.1267 32.6591 23.8355C31.9501 23.5444 31.1907 23.3958 30.4242 23.3985Z" fill="white"/>
<path d="M21.8734 24.3008H19.1734C18.6764 24.3008 18.2734 24.7037 18.2734 25.2008V35.1008C18.2734 35.5978 18.6764 36.0008 19.1734 36.0008H21.8734C22.3705 36.0008 22.7734 35.5978 22.7734 35.1008V25.2008C22.7734 24.7037 22.3705 24.3008 21.8734 24.3008Z" fill="white"/>
<path d="M20.5234 22.5C21.7661 22.5 22.7734 21.4926 22.7734 20.25C22.7734 19.0074 21.7661 18 20.5234 18C19.2808 18 18.2734 19.0074 18.2734 20.25C18.2734 21.4926 19.2808 22.5 20.5234 22.5Z" fill="white"/>
</svg>
