<svg width="55" height="54" viewBox="0 0 55 54" fill="none" xmlns="http://www.w3.org/2000/svg">
<rect x="0.273438" width="54" height="54" rx="27" fill="white" fill-opacity="0.15"/>
<path d="M31.2734 22C31.2734 21.7348 31.3788 21.4804 31.5663 21.2929C31.7539 21.1054 32.0082 21 32.2734 21C32.5387 21 32.793 21.1054 32.9805 21.2929C33.1681 21.4804 33.2734 21.7348 33.2734 22C33.2734 22.2652 33.1681 22.5196 32.9805 22.7071C32.793 22.8946 32.5387 23 32.2734 23C32.0082 23 31.7539 22.8946 31.5663 22.7071C31.3788 22.5196 31.2734 22.2652 31.2734 22Z" fill="white"/>
<path fill-rule="evenodd" clip-rule="evenodd" d="M27.2734 22.25C26.0137 22.25 24.8055 22.7504 23.9147 23.6412C23.0239 24.532 22.5234 25.7402 22.5234 27C22.5234 28.2598 23.0239 29.468 23.9147 30.3588C24.8055 31.2496 26.0137 31.75 27.2734 31.75C28.5332 31.75 29.7414 31.2496 30.6322 30.3588C31.523 29.468 32.0234 28.2598 32.0234 27C32.0234 25.7402 31.523 24.532 30.6322 23.6412C29.7414 22.7504 28.5332 22.25 27.2734 22.25ZM24.0234 27C24.0234 26.138 24.3658 25.3114 24.9753 24.7019C25.5848 24.0924 26.4115 23.75 27.2734 23.75C28.1354 23.75 28.962 24.0924 29.5715 24.7019C30.181 25.3114 30.5234 26.138 30.5234 27C30.5234 27.862 30.181 28.6886 29.5715 29.2981C28.962 29.9076 28.1354 30.25 27.2734 30.25C26.4115 30.25 25.5848 29.9076 24.9753 29.2981C24.3658 28.6886 24.0234 27.862 24.0234 27Z" fill="white"/>
<path fill-rule="evenodd" clip-rule="evenodd" d="M32.5315 17.8337C29.0368 17.4461 25.5101 17.4461 22.0155 17.8337C20.0035 18.0587 18.3785 19.6437 18.1425 21.6657C17.7286 25.2103 17.7286 28.791 18.1425 32.3356C18.3785 34.3576 20.0025 35.9426 22.0155 36.1677C25.5101 36.5544 29.0368 36.5544 32.5315 36.1677C34.5434 35.9426 36.1685 34.3576 36.4045 32.3356C36.8183 28.791 36.8183 25.2103 36.4045 21.6657C36.1685 19.6437 34.5445 18.0587 32.5315 17.8337ZM22.1815 19.3237C25.5657 18.9484 28.9812 18.9484 32.3654 19.3237C33.6954 19.4737 34.7605 20.5227 34.9155 21.8407C35.3166 25.269 35.3166 28.7323 34.9155 32.1607C34.8353 32.8057 34.54 33.4049 34.0773 33.8614C33.6146 34.3179 33.0115 34.6051 32.3654 34.6767C28.9812 35.0519 25.5657 35.0519 22.1815 34.6767C21.5354 34.6051 20.9323 34.3179 20.4696 33.8614C20.0069 33.4049 19.7116 32.8057 19.6315 32.1607C19.2303 28.7323 19.2303 25.269 19.6315 21.8407C19.7116 21.1956 20.0069 20.5964 20.4696 20.1399C20.9323 19.6834 21.5354 19.3952 22.1815 19.3237Z" fill="white"/>
</svg>
